<svg xmlns="http://www.w3.org/2000/svg" enable-background="new 0 0 300 225" viewBox="0 0 300 225" id="404"><g><path fill="#e6edf9" d="M123.4,162.4c-35-8.1-86.6-29.2-70.1-67.3C61.2,76.9,71,69.3,77.7,62.8
		C88.1,52.6,92.4,24.6,119.7,22c22.7-2.2,37.4,12,52.1,13.7c12.9,1.5,48-0.6,58.9,10.9c17.1,18,4.5,31.4,7.4,44.3
		c1.1,4.8,10.3,11.4,11.7,23.2C252.1,133.3,195.9,179.1,123.4,162.4z"></path><ellipse cx="150" cy="187.9" fill="#e6edf9" rx="113.8" ry="15.3"></ellipse><g><g><path fill="#fff" d="M98.1,101c0,0.8-0.7,1.5-1.5,1.5H82.1c-0.8,0-1.5-0.7-1.5-1.5V86.5c0-0.8,0.7-1.5,1.5-1.5
				h14.6c0.8,0,1.5,0.7,1.5,1.5V101z"></path><path fill="#0054d4" d="M82.9,100.2H96c0.4,0,0.7-0.5,0.4-0.8l-3.2-3.9c-0.2-0.2-0.6-0.2-0.8,0l-2.2,2.5l-3.3-4
				c-0.2-0.3-0.6-0.2-0.8,0l-3.7,5.4C82.2,99.7,82.5,100.2,82.9,100.2z"></path><circle cx="91" cy="90.9" r="1.2" fill="#0054d4"></circle></g><g><circle cx="89.5" cy="93.9" r="13.7" fill="none" stroke="#d90429" stroke-miterlimit="10" stroke-width=".291"></circle><line x1="79.8" x2="99.3" y1="84.1" y2="103.6" fill="none" stroke="#d90429" stroke-miterlimit="10" stroke-width=".291"></line></g></g><g><g><path fill="#f15a24" d="M234.6,160.7c0,0.8-0.7,1.5-1.5,1.5h-17.5c-0.8,0-1.5-0.7-1.5-1.5v-10.2
				c0-0.8,0.7-1.5,1.5-1.5h17.5c0.8,0,1.5,0.7,1.5,1.5V160.7z"></path><path fill="#fff" d="M223.5,152.9l3.9,2.3c0.3,0.1,0.2,0.5,0,0.6l-3.9,2.3c-0.3,0.1-0.5,0-0.5-0.3v-4.6
				C223,153,223.2,152.8,223.5,152.9z"></path></g><g><circle cx="224.5" cy="155.5" r="13.7" fill="none" stroke="#0054d4" stroke-miterlimit="10" stroke-width=".291"></circle><line x1="214.8" x2="234.3" y1="145.7" y2="165.2" fill="none" stroke="#0054d4" stroke-miterlimit="10" stroke-width=".291"></line></g></g><g><g><g><g><path fill="#ffba00" d="M154.3,117.1c-0.1,0-0.1,0-0.2,0c-0.2-0.1-0.3-0.3-0.2-0.5c0-0.1,4.5-8.8,3.8-17.9
						c0-0.2,0.1-0.4,0.3-0.4c0.2,0,0.4,0.1,0.4,0.3c0.7,9.3-3.8,18.2-3.9,18.3C154.6,117,154.5,117.1,154.3,117.1z"></path></g><g><g><circle cx="158.2" cy="96.4" r="5" fill="#fff"></circle><circle cx="158.2" cy="96.4" r="2.7" fill="#3376dd"></circle><circle cx="159.2" cy="94.6" r=".8" fill="#fff"></circle></g></g></g><g><g><path fill="#ffba00" d="M145,117.1c-0.1,0-0.3-0.1-0.3-0.2c0-0.1-4.6-9-3.9-18.3c0-0.2,0.2-0.4,0.4-0.3
						c0.2,0,0.4,0.2,0.3,0.4c-0.7,9.1,3.7,17.8,3.8,17.9c0.1,0.2,0,0.4-0.2,0.5C145.1,117.1,145.1,117.1,145,117.1z"></path></g><g><g><circle cx="141.2" cy="96.4" r="5" fill="#fff"></circle><circle cx="141.2" cy="96.4" r="2.7" fill="#3376dd"></circle><circle cx="140.1" cy="94.6" r=".8" fill="#fff"></circle></g></g></g></g><g><polygon fill="#f15a24" points="136.3 89.2 137.5 84.5 146 91.4"></polygon><polygon fill="#f15a24" points="163.2 89.2 162 84.5 153.5 91.4"></polygon></g><path fill="none" stroke="#000" stroke-miterlimit="10" stroke-width=".291" d="M245.2,61.3c0-0.6-0.5-1.2-1.2-1.2H55.5c-0.6,0-1.2,0.5-1.2,1.2v122c0,0.6,0.5,1.2,1.2,1.2
			h188.6c0.6,0,1.2-0.5,1.2-1.2V61.3z"></path><line x1="54.1" x2="245.4" y1="74.1" y2="74.1" fill="none" stroke="#000" stroke-miterlimit="10" stroke-width=".291"></line><g><circle cx="63" cy="67.3" r="2.9" fill="#ff7300"></circle><circle cx="72.9" cy="67.3" r="2.9" fill="#ff7300"></circle><circle cx="82.8" cy="67.3" r="2.9" fill="#ff7300"></circle></g><g><g><g><g><g><path fill="#f15a24" d="M92,146.7v-8.3l19.2-27.2h11.4v26.5h4.9v9h-4.9v7.6h-10.2v-7.6H92z M112.9,122.5
								l-10,15.2h10V122.5z"></path><path fill="#ffba00" d="M136.6,115.7c2.7-4,7-6,12.9-6c5.9,0,10.2,2,12.9,6c2.7,4,4,9.4,4,16.3
								c0,7-1.3,12.5-4,16.4c-2.7,4-7,6-12.9,6c-5.9,0-10.2-2-12.9-6c-2.7-4-4-9.5-4-16.4C132.6,125.1,134,119.6,136.6,115.7z
								 M155,122.6c-0.9-2.2-2.7-3.3-5.5-3.3c-2.8,0-4.6,1.1-5.5,3.3c-0.9,2.2-1.3,5.3-1.3,9.4c0,2.7,0.2,5,0.5,6.8
								c0.3,1.8,1,3.2,2,4.3c1,1.1,2.4,1.7,4.4,1.7s3.4-0.6,4.4-1.7c1-1.1,1.6-2.5,2-4.3c0.3-1.8,0.5-4,0.5-6.8
								C156.3,127.9,155.9,124.8,155,122.6z"></path><path fill="#f15a24" d="M172,146.7v-8.3l19.1-27.2h11.5v26.5h4.9v9h-4.9v7.6h-10.2v-7.6H172z M193,122.5
								l-10,15.2h10V122.5z"></path></g></g></g><rect width="7.1" height="34" x="146.3" y="115.2" fill="#ffba00" transform="rotate(-27.29 149.822 132.128)"></rect></g><g><path fill="#3376dd" d="M119 161.9c.5.3 1 .7 1.3 1.3.3.6.5 1.2.5 2v5.1h-1.7v-4.8c0-.8-.2-1.4-.6-1.8-.4-.4-.9-.6-1.6-.6-.7 0-1.2.2-1.6.6-.4.4-.6 1-.6 1.8v4.8h-1.7v-8.7h1.7v1.1c.3-.4.6-.6 1.1-.8.5-.2.9-.3 1.4-.3C117.9 161.5 118.5 161.7 119 161.9zM124.6 169.9c-.7-.4-1.2-.9-1.6-1.6-.4-.7-.6-1.5-.6-2.3 0-.9.2-1.7.6-2.3.4-.7.9-1.2 1.6-1.6.7-.4 1.4-.5 2.2-.5.8 0 1.6.2 2.2.5.7.4 1.2.9 1.6 1.6.4.7.6 1.5.6 2.3 0 .9-.2 1.7-.6 2.3-.4.7-.9 1.2-1.6 1.6-.7.4-1.4.6-2.3.6C126 170.4 125.2 170.3 124.6 169.9zM128.1 168.6c.4-.2.7-.5 1-1 .3-.4.4-1 .4-1.6 0-.6-.1-1.2-.4-1.6-.2-.4-.6-.8-1-1-.4-.2-.8-.3-1.3-.3-.5 0-.9.1-1.3.3-.4.2-.7.5-.9 1-.2.4-.3 1-.3 1.6 0 .9.2 1.7.7 2.2.5.5 1.1.8 1.8.8C127.2 168.9 127.7 168.8 128.1 168.6zM135.1 163v4.9c0 .3.1.4.3.6.2.1.4.1.8.1h1v1.7h-1.3c-.8 0-1.4-.2-1.9-.6-.4-.4-.6-1-.6-1.8V163h-1.2v-1.5h1.2v-2.3h1.7v2.3h2v1.5H135.1zM146.4 163H145v7.3h-1.7V163h-1.2v-1.5h1.2V161c0-1 .2-1.7.8-2.2.5-.5 1.3-.7 2.4-.7v1.5c-.6 0-.9.1-1.1.3-.2.2-.3.6-.3 1.1v.5h1.5V163zM149.7 169.9c-.7-.4-1.2-.9-1.6-1.6-.4-.7-.6-1.5-.6-2.3 0-.9.2-1.7.6-2.3.4-.7.9-1.2 1.6-1.6.7-.4 1.4-.5 2.2-.5.8 0 1.6.2 2.2.5.7.4 1.2.9 1.6 1.6.4.7.6 1.5.6 2.3 0 .9-.2 1.7-.6 2.3-.4.7-.9 1.2-1.6 1.6-.7.4-1.4.6-2.3.6C151.1 170.4 150.4 170.3 149.7 169.9zM153.2 168.6c.4-.2.7-.5 1-1 .3-.4.4-1 .4-1.6 0-.6-.1-1.2-.4-1.6-.2-.4-.6-.8-1-1-.4-.2-.8-.3-1.3-.3-.5 0-.9.1-1.3.3-.4.2-.7.5-.9 1-.2.4-.3 1-.3 1.6 0 .9.2 1.7.7 2.2.5.5 1.1.8 1.8.8C152.4 168.9 152.8 168.8 153.2 168.6zM165.9 161.6v8.7h-1.7v-1c-.3.4-.6.6-1.1.8-.5.2-.9.3-1.4.3-.7 0-1.3-.1-1.8-.4-.5-.3-1-.7-1.3-1.3-.3-.6-.5-1.2-.5-2v-5.2h1.7v4.9c0 .8.2 1.4.6 1.8.4.4.9.6 1.6.6.7 0 1.2-.2 1.6-.6.4-.4.6-1 .6-1.8v-4.9H165.9zM174.6 161.9c.5.3.9.7 1.2 1.3.3.6.4 1.2.4 2v5.1h-1.7v-4.8c0-.8-.1-1.4-.5-1.8-.4-.4-.9-.6-1.6-.6-.7 0-1.3.2-1.7.6-.4.4-.6 1-.6 1.8v4.8h-1.7v-8.7h1.7v1.1c.3-.4.7-.6 1.2-.8.5-.2 1-.3 1.5-.3C173.4 161.5 174 161.7 174.6 161.9zM178.5 163.6c.4-.7.9-1.2 1.5-1.6.6-.4 1.3-.6 2.1-.6.6 0 1 .1 1.6.4.5.2.9.6 1.2 1v-4.2h2v11.6h-2V169c-.3.4-.6.8-1.1 1-.5.3-1.1.4-1.7.4-.8 0-1.4-.2-2-.6-.6-.4-1.1-.9-1.5-1.6-.4-.7-.5-1.5-.5-2.3C177.9 165.1 178.1 164.3 178.5 163.6zM184.7 164.4c-.2-.4-.6-.8-1-1-.4-.2-.8-.3-1.3-.3-.5 0-.9.1-1.3.3-.4.2-.7.6-1 1-.2.4-.4.9-.4 1.5 0 .6.1 1.1.4 1.6.2.5.6.8 1 1 .4.2.8.4 1.3.4.5 0 .9-.1 1.3-.3.4-.2.7-.6 1-1 .2-.4.4-1 .4-1.6C185 165.4 184.9 164.9 184.7 164.4z"></path></g></g><path fill="#d19500" d="M158.3 147.5c0 1.2-.5 2.2-1.7 2.2s-1.6-1-1.6-2.2-.6-2.2.6-2.2S158.3 146.3 158.3 147.5zM150.3 130.5c0 .5-.2 1-.8 1s-.7-.4-.7-1c0-.5-.3-1 .3-1C149.6 129.5 150.3 130 150.3 130.5zM140.1 148.5c-1.6 0-.8-1.3-2-2.3-1.6-1.5.4-2.1 2-2.1 1.6 0 2.9-.8 2.9.7C143 146.4 141.7 148.5 140.1 148.5zM143.7 116.6c-.8 0-.4-.6-1-1.2-.8-.8.2-1.1 1-1.1.8 0 1.4-.4 1.4.4C145.1 115.6 144.5 116.6 143.7 116.6zM163.2 132.6c-.7 0-.4-.5-.8-1-.7-.6.2-.9.8-.9s1.2-.3 1.2.3S163.9 132.6 163.2 132.6zM159.6 121.1c-1.4 0-3.7-2.1-2.8-3.1 1-1.2 1.6 0 2.9 0s2.3-1.5 2.3-.1C162.1 119.3 161 121.1 159.6 121.1zM135.2 128.8c0-.6.9-1.6 1.4-1.2.5.4 0 .7 0 1.3 0 .6.6 1 0 1C136 129.8 135.2 129.4 135.2 128.8z"></path><g><path fill="#3376dd" d="M152.5,138.9h-5.4c-1.5,0-2.8-1.1-2.8-2.7v-2.3h10.8v2.3
				C155.2,137.7,154.1,138.9,152.5,138.9z"></path><g><polygon fill="#fff" points="146.7 133.9 145.7 137.1 144.7 133.9"></polygon><polygon fill="#fff" points="154.5 133.9 153.5 137.1 152.5 133.9"></polygon></g></g></g><g><g><path fill="#f15a24" d="M195,47.8c0-1.9,2.2-4.1,4.2-4.1H236c1.9,0,3.5,2.1,3.5,4.1v1.8H195V47.8z"></path><path fill="#ffba00" d="M239.6,49.5v46.6c0,1.9-1.6,3.4-3.5,3.4h-36.8c-1.9,0-4.2-1.5-4.2-3.4V49.5H239.6z"></path></g><path fill="#f15a24" d="M234.6,53.3c0-0.3-0.3-0.6-0.6-0.6h-33.5c-0.3,0-0.6,0.3-0.6,0.6V69c0,0.3,0.3,0.6,0.6,0.6
			H234c0.3,0,0.6-0.3,0.6-0.6V53.3z"></path><g><circle cx="203.2" cy="76.6" r="1.9" fill="#fff"></circle><g><line x1="208.1" x2="226.8" y1="75.9" y2="75.9" fill="none" stroke="#000" stroke-linecap="round" stroke-miterlimit="10" stroke-width=".291"></line><line x1="208.1" x2="233.7" y1="78.8" y2="78.8" fill="none" stroke="#000" stroke-linecap="round" stroke-miterlimit="10" stroke-width=".291"></line><line x1="208.1" x2="230.3" y1="81.4" y2="81.4" fill="none" stroke="#000" stroke-linecap="round" stroke-miterlimit="10" stroke-width=".291"></line></g><path fill="#fff" d="M205.1,89c0,1-0.8,1.9-1.9,1.9s-1.9-0.8-1.9-1.9s0.8-1.9,1.9-1.9S205.1,88,205.1,89z"></path><g><line x1="208.1" x2="231.7" y1="88.4" y2="88.4" fill="none" stroke="#000" stroke-linecap="round" stroke-miterlimit="10" stroke-width=".291"></line><line x1="208.1" x2="229.1" y1="91" y2="91" fill="none" stroke="#000" stroke-linecap="round" stroke-miterlimit="10" stroke-width=".291"></line><line x1="208.1" x2="233.5" y1="93.9" y2="93.9" fill="none" stroke="#000" stroke-linecap="round" stroke-miterlimit="10" stroke-width=".291"></line></g></g><g><line x1="201.1" x2="233.7" y1="53.3" y2="69.1" fill="none" stroke="#000" stroke-linecap="round" stroke-miterlimit="10" stroke-width=".291"></line><line x1="233.7" x2="201.1" y1="53.3" y2="69.1" fill="none" stroke="#000" stroke-linecap="round" stroke-miterlimit="10" stroke-width=".291"></line></g><g><line x1="198.5" x2="201" y1="45.5" y2="48.1" fill="none" stroke="#000" stroke-linecap="round" stroke-miterlimit="10" stroke-width=".291"></line><line x1="201" x2="198.5" y1="45.5" y2="48.1" fill="none" stroke="#000" stroke-linecap="round" stroke-miterlimit="10" stroke-width=".291"></line></g></g><g><g><path fill="#ffba00" d="M42.5,157.5c0-1.6,1.9-3.4,3.5-3.4h54.4c1.6,0,3,1.8,3,3.4v1.5H42.5V157.5z"></path><path fill="#0054d4" d="M103.3,159v27.7c0,1.6-1.3,2.9-3,2.9H46c-1.6,0-3.5-1.3-3.5-2.9V159H103.3z"></path></g><g><path fill="#ffba00" d="M74.2,162.5c0-0.3-0.3-0.6-0.6-0.6H48.9c-0.3,0-0.6,0.3-0.6,0.6v13.1
				c0,0.3,0.3,0.6,0.6,0.6h24.7c0.3,0,0.6-0.3,0.6-0.6V162.5z"></path><g><line x1="49.3" x2="73.6" y1="162.5" y2="175.8" fill="none" stroke="#000" stroke-linecap="round" stroke-miterlimit="10" stroke-width=".291"></line><line x1="73.6" x2="49.3" y1="162.5" y2="175.8" fill="none" stroke="#000" stroke-linecap="round" stroke-miterlimit="10" stroke-width=".291"></line></g><g><line x1="77.7" x2="97.5" y1="163.5" y2="163.5" fill="none" stroke="#000" stroke-linecap="round" stroke-miterlimit="10" stroke-width=".291"></line><line x1="77.7" x2="97.5" y1="167.3" y2="167.3" fill="none" stroke="#000" stroke-linecap="round" stroke-miterlimit="10" stroke-width=".291"></line><line x1="77.7" x2="97.5" y1="171.1" y2="171.1" fill="none" stroke="#000" stroke-linecap="round" stroke-miterlimit="10" stroke-width=".291"></line><line x1="77.7" x2="97.5" y1="174.8" y2="174.8" fill="none" stroke="#000" stroke-linecap="round" stroke-miterlimit="10" stroke-width=".291"></line></g><g><line x1="48.3" x2="97.8" y1="178.9" y2="178.9" fill="none" stroke="#000" stroke-linecap="round" stroke-miterlimit="10" stroke-width=".291"></line><line x1="48.3" x2="97.8" y1="182.7" y2="182.7" fill="none" stroke="#000" stroke-linecap="round" stroke-miterlimit="10" stroke-width=".291"></line><line x1="48.3" x2="97.8" y1="186.5" y2="186.5" fill="none" stroke="#000" stroke-linecap="round" stroke-miterlimit="10" stroke-width=".291"></line></g></g><circle cx="47" cy="156.6" r="1.3" fill="none" stroke="#000" stroke-miterlimit="10" stroke-width=".291"></circle></g><g><circle cx="144.7" cy="45.1" r="4.8" fill="#f15a24"></circle><g><line x1="142.3" x2="147" y1="42.8" y2="47.5" fill="none" stroke="#fff" stroke-linecap="round" stroke-miterlimit="10" stroke-width=".291"></line><line x1="147" x2="142.3" y1="42.8" y2="47.5" fill="none" stroke="#fff" stroke-linecap="round" stroke-miterlimit="10" stroke-width=".291"></line></g></g><g><circle cx="127.5" cy="184.3" r="4.8" fill="#ffba00"></circle><g><line x1="125.1" x2="129.9" y1="181.9" y2="186.6" fill="none" stroke="#fff" stroke-linecap="round" stroke-miterlimit="10" stroke-width=".291"></line><line x1="129.9" x2="125.1" y1="181.9" y2="186.6" fill="none" stroke="#fff" stroke-linecap="round" stroke-miterlimit="10" stroke-width=".291"></line></g></g><path fill="none" stroke="#000" stroke-linecap="round" stroke-miterlimit="10" stroke-width=".291" d="M207.4 107.4c0 0 11.5 1.6 11.1 4.7-.4 3.3-12 1.7-11.4.1s7.3.7 8.3 2.7-6.9 5-7.3 2.8c-.4-2.3 5.7.4 5.1 2.4-.5 1.4-7.1 2.1-7.1 2.1M99.2 44c0 0 7.5-8.8 9.9-6.8 2.5 2.1-5 11-6.1 9.7s4.5-5.8 6.7-5.6c2.2.2.5 8.5-1.6 7.6-2.2-.9 3.5-4.6 4.8-3 1 1.2-2 7.1-2 7.1M82.6 138.3c0 0-5.6 10.4-7.3 4.4-1.8-5.9 2.9-10.3 2.4-5.1s-6.3 10.7-6.3 4.9c0-6.5.9-7.9 1.6-4.9 1.3 5.4-4.7 12.3-6.3 4.9-1.6-7.2 2.6-4.6 2.6-1.4 0 3.2-2.5 5.6-6.1 5.1M186 43.6c0 0-5.6 10.4-7.3 4.4s2.9-10.3 2.4-5.1-6.3 10.7-6.3 4.9c0-6.5.9-7.9 1.6-4.9 1.3 5.4-4.7 12.3-6.3 4.9-1.6-7.2 2.6-4.6 2.6-1.4s-2.5 5.6-6.1 5.1"></path><g><line x1="73.9" x2="77.7" y1="53.1" y2="56.9" fill="none" stroke="#d90429" stroke-linecap="round" stroke-miterlimit="10" stroke-width=".291"></line><line x1="77.7" x2="73.9" y1="53.1" y2="56.9" fill="none" stroke="#d90429" stroke-linecap="round" stroke-miterlimit="10" stroke-width=".291"></line></g><circle cx="89.5" cy="34.9" r="2.3" fill="none" stroke="#0054d4" stroke-miterlimit="10" stroke-width=".291"></circle><polygon fill="none" stroke="#ffba00" stroke-miterlimit="10" stroke-width=".291" points="124.2 39.5 126.8 34.9 129.4 39.5"></polygon><g><line x1="181" x2="184.8" y1="188.5" y2="192.3" fill="none" stroke="#d90429" stroke-linecap="round" stroke-miterlimit="10" stroke-width=".291"></line><line x1="184.8" x2="181" y1="188.5" y2="192.3" fill="none" stroke="#d90429" stroke-linecap="round" stroke-miterlimit="10" stroke-width=".291"></line></g><circle cx="210" cy="179" r="2.3" fill="none" stroke="#0054d4" stroke-miterlimit="10" stroke-width=".291"></circle><polygon fill="none" stroke="#ffba00" stroke-miterlimit="10" stroke-width=".291" points="245.8 167.6 248.5 163 251.1 167.6"></polygon><g><line x1="36.3" x2="40.2" y1="136.1" y2="139.9" fill="none" stroke="#d90429" stroke-linecap="round" stroke-miterlimit="10" stroke-width=".291"></line><line x1="40.2" x2="36.3" y1="136.1" y2="139.9" fill="none" stroke="#d90429" stroke-linecap="round" stroke-miterlimit="10" stroke-width=".291"></line></g><circle cx="63.3" cy="111.7" r="2.3" fill="none" stroke="#0054d4" stroke-miterlimit="10" stroke-width=".291"></circle><polygon fill="none" stroke="#ffba00" stroke-miterlimit="10" stroke-width=".291" points="59.2 90.7 61.9 86.1 64.5 90.7"></polygon></g></svg>